<svg xmlns="http://www.w3.org/2000/svg" viewBox="0 0 64 80" x="0px" y="0px"><title>smart building home</title><path d="M58.07,0H5.93A5.44,5.44,0,0,0,3.44,10.28V62a2,2,0,0,0,2,2H58.56a2,2,0,0,0,2-2V10.28A5.44,5.44,0,0,0,58.07,0ZM5.93,4H58.07a1.45,1.45,0,0,1,0,2.89H5.93A1.45,1.45,0,0,1,5.93,4ZM7.44,37.87V34H56.56v3.87Zm49.12,4v3.87H7.44V41.87ZM7.44,30V26.13H56.56V30Zm0-7.87V18.26H56.56v3.87Zm0,27.61H56.56v3.87H7.44ZM56.56,14.26H7.44V10.89H56.56ZM7.44,60V57.61H56.56V60Z"/><text x="0" y="79" fill="#000000" font-size="5px" font-weight="bold" font-family="'Helvetica Neue', Helvetica, Arial-Unicode, Arial, Sans-serif">Created by Lagot Design</text><text x="0" y="84" fill="#000000" font-size="5px" font-weight="bold" font-family="'Helvetica Neue', Helvetica, Arial-Unicode, Arial, Sans-serif">from the Noun Project</text></svg>