<svg xmlns="http://www.w3.org/2000/svg" viewBox="0 0 64 80" x="0px" y="0px"><title>smart building home</title><path d="M11.35,58.09h41.3a2,2,0,0,0,2-2V14.79a2,2,0,0,0-2-2H11.35a2,2,0,0,0-2,2v41.3A2,2,0,0,0,11.35,58.09Zm2-41.3h37.3v37.3H13.35Z"/><path d="M58.06,0H5.94A5.44,5.44,0,0,0,3.45,10.28V62a2,2,0,0,0,2,2h53.1a2,2,0,0,0,2-2V10.28A5.44,5.44,0,0,0,58.06,0ZM5.94,4H58.06a1.44,1.44,0,0,1,0,2.88H5.94A1.44,1.44,0,0,1,5.94,4ZM56.55,60H7.45V10.89h49.1Z"/><path d="M44.35,30a2,2,0,0,0,2.83-2.83L40.3,20.26a2,2,0,0,0-2.83,2.83Z"/><path d="M29.48,19.28a2,2,0,1,0-2.83,2.83L45.83,41.28a2,2,0,0,0,1.41.59,2,2,0,0,0,1.42-3.42Z"/><text x="0" y="79" fill="#000000" font-size="5px" font-weight="bold" font-family="'Helvetica Neue', Helvetica, Arial-Unicode, Arial, Sans-serif">Created by Lagot Design</text><text x="0" y="84" fill="#000000" font-size="5px" font-weight="bold" font-family="'Helvetica Neue', Helvetica, Arial-Unicode, Arial, Sans-serif">from the Noun Project</text></svg>